<svg display="none" xmlns="http://www.w3.org/2000/svg">

  <symbol id="linkedin" viewBox="0 0 17 15">
    <path d="M276.725,1274.43h-3.042V1284h3.042v-9.57h0Zm0.214-2.96a1.588,1.588,0,0,0-1.716-1.47,1.651,1.651,0,1,0-.036,3.3h0.018a1.621,1.621,0,0,0,1.734-1.65v-0.18h0Zm11.561,6.97c0-2.82-1.5-4.05-3.548-4.05a2.966,2.966,0,0,0-3.045,1.43l0.021,0.02v-1.26h-3.35s0.041,0.81,0,9.35h3.35v-5.34a2.245,2.245,0,0,1,.112-0.78,1.829,1.829,0,0,1,1.72-1.16c1.212,0,1.7.88,1.7,2.16v5.12H288.5v-5.49h0Z" transform="translate(-273.5 -1270)"/>
  </symbol>

  <symbol id="twitter" viewBox="0 0 15 13">
    <path d="M288.5,1326.04a5.64,5.64,0,0,1-1.769.51,3.2,3.2,0,0,0,1.352-1.81,5.914,5.914,0,0,1-1.951.8,2.985,2.985,0,0,0-2.247-1.04,3.179,3.179,0,0,0-3.074,3.28,3.894,3.894,0,0,0,.076.75,8.565,8.565,0,0,1-6.34-3.43,3.432,3.432,0,0,0-.419,1.65,3.354,3.354,0,0,0,1.371,2.74,3,3,0,0,1-1.39-.42v0.04a3.228,3.228,0,0,0,2.466,3.22,3.1,3.1,0,0,1-.809.11,3.692,3.692,0,0,1-.581-0.05,3.116,3.116,0,0,0,2.875,2.28,5.937,5.937,0,0,1-3.818,1.4,6.041,6.041,0,0,1-.742-0.04,8.326,8.326,0,0,0,4.721,1.47c5.655,0,8.748-5,8.748-9.33,0-.15,0-0.29-0.009-0.43a6.886,6.886,0,0,0,1.54-1.7h0Z" transform="translate(-273.5 -1324.5)"/>
  </symbol>

  <symbol id="pinterest" viewBox="0 0 15 15">
    <path d="M288.5,1387.38c0-4.25-3.514-7.88-7.388-7.88a7.776,7.776,0,0,0-7.612,7.88,6.6,6.6,0,0,0,4.557,6.62,4.136,4.136,0,0,1,.127-1.37s0.147-.48.974-4.13a3.4,3.4,0,0,1-.249-1.26c0-1.17.658-2.05,1.475-2.05a1.058,1.058,0,0,1,1.036,1.2,17.438,17.438,0,0,1-.677,2.8,1.2,1.2,0,0,0,1.086,1.53c1.127,0,1.884-1.93,1.884-4.21,0-1.67-.881-2.74-2.521-2.74a3.432,3.432,0,0,0-3.743,3.49,2.382,2.382,0,0,0,.5,1.56,0.4,0.4,0,0,1,.108.44c-0.04.15-.118,0.5-0.157,0.63a0.259,0.259,0,0,1-.373.21,3.035,3.035,0,0,1-1.733-3.03,5.494,5.494,0,0,1,5.607-5.16,5.415,5.415,0,0,1,4.805,4.75c0,3.11-2.227,5.43-4.246,5.43a2.1,2.1,0,0,1-1.7-.99c-0.449,1.62-.538,1.88-0.538,1.88a4.588,4.588,0,0,1-.778,1.27,9.654,9.654,0,0,0,2.173.25,7.107,7.107,0,0,0,7.388-7.12h0Z" transform="translate(-273.5 -1379.5)"/>
  </symbol>

  <symbol id="rss" viewBox="0 0 17 15">
    <path d="M278.043,1445.09a1.777,1.777,0,1,0-1.771,1.91,1.848,1.848,0,0,0,1.771-1.91h0Zm4.724,1.22a9.241,9.241,0,0,0-2.417-5.61,8.016,8.016,0,0,0-5.213-2.61H275.09a0.542,0.542,0,0,0-.4.17,0.633,0.633,0,0,0-.194.47v1.34a0.614,0.614,0,0,0,.535.63,6.136,6.136,0,0,1,5.315,5.72,0.6,0.6,0,0,0,.581.58h1.246a0.541,0.541,0,0,0,.433-0.21,0.676,0.676,0,0,0,.157-0.48h0Zm4.732,0.02a14.538,14.538,0,0,0-3.827-9.21,12.577,12.577,0,0,0-8.554-4.12H275.09a0.552,0.552,0,0,0-.406.18,0.641,0.641,0,0,0-.184.46v1.42a0.605,0.605,0,0,0,.554.62c5.36,0.34,9.633,4.95,9.937,10.72a0.611,0.611,0,0,0,.591.6H286.9a0.544,0.544,0,0,0,.424-0.2,0.646,0.646,0,0,0,.174-0.47h0Z" transform="translate(-274.5 -1433)"/>
  </symbol>

</svg>
 